<mxfile host="app.diagrams.net" agent="Mozilla/5.0 (Windows NT 10.0; Win64; x64) AppleWebKit/537.36 (KHTML, like Gecko) Chrome/136.0.0.0 Safari/537.36" version="27.0.3">
  <diagram name="Page-1" id="kD3yPe5p0wzm0cxBCneI">
    <mxGraphModel dx="954" dy="496" grid="1" gridSize="10" guides="1" tooltips="1" connect="1" arrows="1" fold="1" page="1" pageScale="1" pageWidth="827" pageHeight="1169" math="0" shadow="0">
      <root>
        <mxCell id="0" />
        <mxCell id="1" parent="0" />
        <mxCell id="O9Kii3Pe_h-HHj58OvEQ-1" value="Content Repository" style="rounded=0;whiteSpace=wrap;html=1;fillColor=#dae8fc;strokeColor=#6c8ebf;verticalAlign=top;" vertex="1" parent="1">
          <mxGeometry x="36" y="90" width="224" height="240" as="geometry" />
        </mxCell>
        <mxCell id="O9Kii3Pe_h-HHj58OvEQ-26" value="" style="edgeStyle=orthogonalEdgeStyle;shape=connector;curved=1;rounded=0;orthogonalLoop=1;jettySize=auto;html=1;strokeColor=default;align=center;verticalAlign=middle;fontFamily=Helvetica;fontSize=11;fontColor=default;labelBackgroundColor=default;endArrow=classic;" edge="1" parent="1" source="O9Kii3Pe_h-HHj58OvEQ-2" target="O9Kii3Pe_h-HHj58OvEQ-25">
          <mxGeometry relative="1" as="geometry" />
        </mxCell>
        <mxCell id="O9Kii3Pe_h-HHj58OvEQ-2" value="Fusion Objects" style="rounded=0;whiteSpace=wrap;html=1;fillColor=#d5e8d4;strokeColor=#82b366;verticalAlign=top;" vertex="1" parent="1">
          <mxGeometry x="341" y="92" width="450" height="230" as="geometry" />
        </mxCell>
        <mxCell id="O9Kii3Pe_h-HHj58OvEQ-16" style="edgeStyle=orthogonalEdgeStyle;rounded=0;orthogonalLoop=1;jettySize=auto;html=1;entryX=1;entryY=0.5;entryDx=0;entryDy=0;curved=1;" edge="1" parent="1" source="O9Kii3Pe_h-HHj58OvEQ-3" target="O9Kii3Pe_h-HHj58OvEQ-1">
          <mxGeometry relative="1" as="geometry" />
        </mxCell>
        <mxCell id="O9Kii3Pe_h-HHj58OvEQ-17" value="Query" style="edgeLabel;html=1;align=center;verticalAlign=middle;resizable=0;points=[];" vertex="1" connectable="0" parent="O9Kii3Pe_h-HHj58OvEQ-16">
          <mxGeometry x="0.1375" y="-5" relative="1" as="geometry">
            <mxPoint as="offset" />
          </mxGeometry>
        </mxCell>
        <mxCell id="O9Kii3Pe_h-HHj58OvEQ-19" style="edgeStyle=orthogonalEdgeStyle;rounded=0;orthogonalLoop=1;jettySize=auto;html=1;entryX=0.003;entryY=0.342;entryDx=0;entryDy=0;curved=1;entryPerimeter=0;" edge="1" parent="1" source="O9Kii3Pe_h-HHj58OvEQ-3" target="O9Kii3Pe_h-HHj58OvEQ-18">
          <mxGeometry relative="1" as="geometry" />
        </mxCell>
        <mxCell id="O9Kii3Pe_h-HHj58OvEQ-20" value="Asembles" style="edgeLabel;html=1;align=center;verticalAlign=middle;resizable=0;points=[];" vertex="1" connectable="0" parent="O9Kii3Pe_h-HHj58OvEQ-19">
          <mxGeometry x="0.1255" y="2" relative="1" as="geometry">
            <mxPoint as="offset" />
          </mxGeometry>
        </mxCell>
        <mxCell id="O9Kii3Pe_h-HHj58OvEQ-3" value="Embeded Expression Language" style="rounded=0;whiteSpace=wrap;html=1;fillColor=#e1d5e7;strokeColor=#9673a6;verticalAlign=middle;" vertex="1" parent="1">
          <mxGeometry x="371" y="142" width="160" height="50" as="geometry" />
        </mxCell>
        <mxCell id="O9Kii3Pe_h-HHj58OvEQ-8" value="" style="group" vertex="1" connectable="0" parent="1">
          <mxGeometry x="68" y="163" width="160" height="92" as="geometry" />
        </mxCell>
        <mxCell id="O9Kii3Pe_h-HHj58OvEQ-4" value="Page Node" style="rounded=0;whiteSpace=wrap;html=1;fillColor=#fff2cc;strokeColor=#d6b656;verticalAlign=top;" vertex="1" parent="O9Kii3Pe_h-HHj58OvEQ-8">
          <mxGeometry width="150" height="80" as="geometry" />
        </mxCell>
        <mxCell id="O9Kii3Pe_h-HHj58OvEQ-7" value="" style="group" vertex="1" connectable="0" parent="O9Kii3Pe_h-HHj58OvEQ-8">
          <mxGeometry x="16" y="34" width="118" height="36" as="geometry" />
        </mxCell>
        <mxCell id="O9Kii3Pe_h-HHj58OvEQ-5" value="Content Node" style="rounded=0;whiteSpace=wrap;html=1;fillColor=#fff2cc;strokeColor=#d6b656;verticalAlign=top;" vertex="1" parent="O9Kii3Pe_h-HHj58OvEQ-7">
          <mxGeometry width="110" height="30" as="geometry" />
        </mxCell>
        <mxCell id="O9Kii3Pe_h-HHj58OvEQ-6" value="Content Node" style="rounded=0;whiteSpace=wrap;html=1;fillColor=#fff2cc;strokeColor=#d6b656;verticalAlign=top;shadow=1;" vertex="1" parent="O9Kii3Pe_h-HHj58OvEQ-7">
          <mxGeometry x="8" y="6" width="110" height="30" as="geometry" />
        </mxCell>
        <mxCell id="O9Kii3Pe_h-HHj58OvEQ-11" value="" style="group;shadow=1;" vertex="1" connectable="0" parent="O9Kii3Pe_h-HHj58OvEQ-8">
          <mxGeometry x="10" y="9" width="150" height="80" as="geometry" />
        </mxCell>
        <mxCell id="O9Kii3Pe_h-HHj58OvEQ-12" value="Page Node" style="rounded=0;whiteSpace=wrap;html=1;fillColor=#fff2cc;strokeColor=#d6b656;verticalAlign=top;" vertex="1" parent="O9Kii3Pe_h-HHj58OvEQ-11">
          <mxGeometry width="150" height="80" as="geometry" />
        </mxCell>
        <mxCell id="O9Kii3Pe_h-HHj58OvEQ-13" value="" style="group" vertex="1" connectable="0" parent="O9Kii3Pe_h-HHj58OvEQ-11">
          <mxGeometry x="16" y="34" width="118" height="36" as="geometry" />
        </mxCell>
        <mxCell id="O9Kii3Pe_h-HHj58OvEQ-14" value="Content Node" style="rounded=0;whiteSpace=wrap;html=1;fillColor=#fff2cc;strokeColor=#d6b656;verticalAlign=top;" vertex="1" parent="O9Kii3Pe_h-HHj58OvEQ-13">
          <mxGeometry width="110" height="30" as="geometry" />
        </mxCell>
        <mxCell id="O9Kii3Pe_h-HHj58OvEQ-15" value="Content Node" style="rounded=0;whiteSpace=wrap;html=1;fillColor=#fff2cc;strokeColor=#d6b656;verticalAlign=top;shadow=1;" vertex="1" parent="O9Kii3Pe_h-HHj58OvEQ-13">
          <mxGeometry x="8" y="6" width="110" height="30" as="geometry" />
        </mxCell>
        <mxCell id="O9Kii3Pe_h-HHj58OvEQ-18" value="Fusion Object Properties" style="rounded=0;whiteSpace=wrap;html=1;fillColor=#e1d5e7;strokeColor=#9673a6;verticalAlign=middle;" vertex="1" parent="1">
          <mxGeometry x="651" y="142" width="127" height="140" as="geometry" />
        </mxCell>
        <mxCell id="O9Kii3Pe_h-HHj58OvEQ-21" value="AFX Template Language" style="rounded=0;whiteSpace=wrap;html=1;fillColor=#e1d5e7;strokeColor=#9673a6;verticalAlign=middle;" vertex="1" parent="1">
          <mxGeometry x="371" y="232" width="170" height="50" as="geometry" />
        </mxCell>
        <mxCell id="O9Kii3Pe_h-HHj58OvEQ-22" style="edgeStyle=orthogonalEdgeStyle;rounded=0;orthogonalLoop=1;jettySize=auto;html=1;entryX=0.037;entryY=0.799;entryDx=0;entryDy=0;entryPerimeter=0;curved=1;" edge="1" parent="1" source="O9Kii3Pe_h-HHj58OvEQ-21" target="O9Kii3Pe_h-HHj58OvEQ-18">
          <mxGeometry relative="1" as="geometry" />
        </mxCell>
        <mxCell id="O9Kii3Pe_h-HHj58OvEQ-23" value="Specify&amp;nbsp;&lt;div&gt;Rendering&amp;nbsp;&lt;/div&gt;" style="edgeLabel;html=1;align=center;verticalAlign=middle;resizable=0;points=[];fontFamily=Helvetica;fontSize=11;fontColor=default;labelBackgroundColor=default;" vertex="1" connectable="0" parent="O9Kii3Pe_h-HHj58OvEQ-22">
          <mxGeometry x="-0.1651" y="-1" relative="1" as="geometry">
            <mxPoint as="offset" />
          </mxGeometry>
        </mxCell>
        <mxCell id="O9Kii3Pe_h-HHj58OvEQ-24" value="t" style="edgeLabel;html=1;align=center;verticalAlign=middle;resizable=0;points=[];fontFamily=Helvetica;fontSize=11;fontColor=default;labelBackgroundColor=default;" vertex="1" connectable="0" parent="O9Kii3Pe_h-HHj58OvEQ-22">
          <mxGeometry x="-0.1131" y="-3" relative="1" as="geometry">
            <mxPoint as="offset" />
          </mxGeometry>
        </mxCell>
        <mxCell id="O9Kii3Pe_h-HHj58OvEQ-25" value="Rendered Page/Content" style="rounded=0;whiteSpace=wrap;html=1;fillColor=#f8cecc;strokeColor=#b85450;verticalAlign=middle;" vertex="1" parent="1">
          <mxGeometry x="341" y="402" width="339" height="98" as="geometry" />
        </mxCell>
      </root>
    </mxGraphModel>
  </diagram>
</mxfile>
